<svg width="33" height="30" viewBox="0 0 33 30" fill="none" xmlns="http://www.w3.org/2000/svg">
<mask id="path-1-inside-1_16_1456" fill="white">
<path d="M20.3435 14.6447C20.1027 14.6447 19.8791 14.5785 19.6805 14.472V14.4748C19.6805 14.8536 19.5333 15.2094 19.2661 15.4759C18.999 15.743 18.6435 15.8903 18.2651 15.8903C18.0207 15.8903 17.7943 15.8224 17.5936 15.7131C17.5733 16.0597 17.4348 16.3836 17.1877 16.631C16.9205 16.8982 16.565 17.0454 16.1863 17.0454C15.4341 17.0454 14.8231 16.4541 14.7791 15.7129C14.5463 15.8387 14.2832 15.9047 14.0118 15.8872C13.2717 15.8387 12.6922 15.1993 12.6922 14.4312V8.06456L11.9672 9.32052C11.6911 9.8009 11.1742 10.0992 10.6177 10.0992C10.3465 10.0992 10.0786 10.028 9.8414 9.89207C9.54597 9.72079 9.33464 9.44585 9.24675 9.11693C9.15841 8.7878 9.20411 8.44359 9.37492 8.1486C9.37515 8.1486 11.7469 4.0414 11.8916 3.78911C11.9088 3.75118 11.9578 3.64116 11.9995 3.54739C12.0393 3.45786 12.0735 3.36598 12.1062 3.27362C12.8215 1.25434 14.5925 1.14441e-05 16.7284 1.14441e-05C19.5021 1.14441e-05 21.7587 2.44691 21.7587 5.4546L21.7589 13.229C21.7589 13.6073 21.6119 13.9628 21.345 14.2303C21.0778 14.4974 20.7223 14.6447 20.3435 14.6447L20.3435 14.6447ZM16.7285 0.752153C14.8931 0.752153 13.4303 1.78882 12.8152 3.52517C12.7758 3.63543 12.7348 3.74568 12.687 3.85312C12.5482 4.16435 12.5482 4.16435 12.5091 4.2091L12.504 4.20463C12.3103 4.57004 11.735 5.56638 10.0262 8.52503C9.95596 8.64637 9.93735 8.78726 9.97316 8.92201C10.0094 9.05678 10.0964 9.17033 10.2168 9.23983C10.5904 9.45446 11.1022 9.31593 11.3151 8.94487L12.7426 6.47342C12.8279 6.32617 13.0004 6.25384 13.1658 6.29861C13.3302 6.34266 13.4445 6.4918 13.4445 6.6619V14.4314C13.4445 14.798 13.7211 15.1144 14.061 15.1368C14.2571 15.1472 14.4399 15.0814 14.5772 14.9443C14.7021 14.8194 14.7709 14.6531 14.7709 14.4752V9.39386C14.7709 9.18606 14.9394 9.0176 15.1472 9.0176C15.3549 9.0176 15.5234 9.18582 15.5234 9.39386L15.5232 15.6302C15.5232 15.9959 15.8207 16.2934 16.1864 16.2934C16.364 16.2934 16.5308 16.2246 16.6559 16.0998C16.7808 15.9747 16.8496 15.8079 16.8496 15.6302V9.39385C16.8496 9.18605 17.0178 9.0176 17.2258 9.0176C17.4336 9.0176 17.6021 9.18582 17.6021 9.39385L17.6018 14.4168V14.4752C17.6018 14.8406 17.8994 15.1382 18.2653 15.1382C18.4427 15.1382 18.609 15.0691 18.7348 14.9438C18.8597 14.8192 18.9285 14.6528 18.9285 14.475V9.39359C18.9285 9.18579 19.0967 9.01734 19.3047 9.01734C19.5125 9.01734 19.681 9.18555 19.681 9.39359L19.6805 13.2291C19.6805 13.595 19.9781 13.8926 20.3435 13.8926C20.5214 13.8926 20.6877 13.8236 20.8126 13.6989C20.9379 13.5736 21.0065 13.4068 21.0065 13.2291L21.0067 5.45478C21.0067 2.86204 19.0875 0.752232 16.7284 0.752232L16.7285 0.752153Z"/>
</mask>
<path d="M20.3435 14.6447C20.1027 14.6447 19.8791 14.5785 19.6805 14.472V14.4748C19.6805 14.8536 19.5333 15.2094 19.2661 15.4759C18.999 15.743 18.6435 15.8903 18.2651 15.8903C18.0207 15.8903 17.7943 15.8224 17.5936 15.7131C17.5733 16.0597 17.4348 16.3836 17.1877 16.631C16.9205 16.8982 16.565 17.0454 16.1863 17.0454C15.4341 17.0454 14.8231 16.4541 14.7791 15.7129C14.5463 15.8387 14.2832 15.9047 14.0118 15.8872C13.2717 15.8387 12.6922 15.1993 12.6922 14.4312V8.06456L11.9672 9.32052C11.6911 9.8009 11.1742 10.0992 10.6177 10.0992C10.3465 10.0992 10.0786 10.028 9.8414 9.89207C9.54597 9.72079 9.33464 9.44585 9.24675 9.11693C9.15841 8.7878 9.20411 8.44359 9.37492 8.1486C9.37515 8.1486 11.7469 4.0414 11.8916 3.78911C11.9088 3.75118 11.9578 3.64116 11.9995 3.54739C12.0393 3.45786 12.0735 3.36598 12.1062 3.27362C12.8215 1.25434 14.5925 1.14441e-05 16.7284 1.14441e-05C19.5021 1.14441e-05 21.7587 2.44691 21.7587 5.4546L21.7589 13.229C21.7589 13.6073 21.6119 13.9628 21.345 14.2303C21.0778 14.4974 20.7223 14.6447 20.3435 14.6447L20.3435 14.6447ZM16.7285 0.752153C14.8931 0.752153 13.4303 1.78882 12.8152 3.52517C12.7758 3.63543 12.7348 3.74568 12.687 3.85312C12.5482 4.16435 12.5482 4.16435 12.5091 4.2091L12.504 4.20463C12.3103 4.57004 11.735 5.56638 10.0262 8.52503C9.95596 8.64637 9.93735 8.78726 9.97316 8.92201C10.0094 9.05678 10.0964 9.17033 10.2168 9.23983C10.5904 9.45446 11.1022 9.31593 11.3151 8.94487L12.7426 6.47342C12.8279 6.32617 13.0004 6.25384 13.1658 6.29861C13.3302 6.34266 13.4445 6.4918 13.4445 6.6619V14.4314C13.4445 14.798 13.7211 15.1144 14.061 15.1368C14.2571 15.1472 14.4399 15.0814 14.5772 14.9443C14.7021 14.8194 14.7709 14.6531 14.7709 14.4752V9.39386C14.7709 9.18606 14.9394 9.0176 15.1472 9.0176C15.3549 9.0176 15.5234 9.18582 15.5234 9.39386L15.5232 15.6302C15.5232 15.9959 15.8207 16.2934 16.1864 16.2934C16.364 16.2934 16.5308 16.2246 16.6559 16.0998C16.7808 15.9747 16.8496 15.8079 16.8496 15.6302V9.39385C16.8496 9.18605 17.0178 9.0176 17.2258 9.0176C17.4336 9.0176 17.6021 9.18582 17.6021 9.39385L17.6018 14.4168V14.4752C17.6018 14.8406 17.8994 15.1382 18.2653 15.1382C18.4427 15.1382 18.609 15.0691 18.7348 14.9438C18.8597 14.8192 18.9285 14.6528 18.9285 14.475V9.39359C18.9285 9.18579 19.0967 9.01734 19.3047 9.01734C19.5125 9.01734 19.681 9.18555 19.681 9.39359L19.6805 13.2291C19.6805 13.595 19.9781 13.8926 20.3435 13.8926C20.5214 13.8926 20.6877 13.8236 20.8126 13.6989C20.9379 13.5736 21.0065 13.4068 21.0065 13.2291L21.0067 5.45478C21.0067 2.86204 19.0875 0.752232 16.7284 0.752232L16.7285 0.752153Z" fill="#4CAF4F"/>
<path d="M20.3435 14.6447V13.3113H25.0542L21.0423 15.7802L20.3435 14.6447ZM19.6805 14.472H18.3472V12.2441L20.3106 13.2969L19.6805 14.472ZM19.2661 15.4759L18.3233 14.5331L18.3246 14.5318L19.2661 15.4759ZM17.5936 15.7131L16.2625 15.6353L16.3852 13.5368L18.2313 14.5422L17.5936 15.7131ZM17.1877 16.631L18.131 17.5733L18.1305 17.5738L17.1877 16.631ZM14.7791 15.7129L14.1452 14.5399L15.986 13.545L16.1101 15.6338L14.7791 15.7129ZM14.0118 15.8872L13.9263 17.2178L13.9245 17.2177L14.0118 15.8872ZM12.6922 8.06456L11.5374 7.39801L14.0255 3.08751V8.06456H12.6922ZM11.9672 9.32052L10.8112 8.65607L10.8124 8.65397L11.9672 9.32052ZM9.8414 9.89207L9.17851 11.049L9.17267 11.0456L9.8414 9.89207ZM9.24675 9.11693L10.5345 8.77126L10.5349 8.77276L9.24675 9.11693ZM9.37492 8.1486L8.22106 7.48048L8.60624 6.81527H9.37492V8.1486ZM11.8916 3.78911L13.1059 4.33972L13.0798 4.39745L13.0482 4.45245L11.8916 3.78911ZM11.9995 3.54739L10.7812 3.0056L10.7812 3.00558L11.9995 3.54739ZM12.1062 3.27362L13.3631 3.7188L13.3629 3.71917L12.1062 3.27362ZM21.7587 5.4546L20.4253 5.45464V5.4546H21.7587ZM21.7589 13.229L23.0922 13.2289V13.229H21.7589ZM21.345 14.2303L22.2886 15.1722L22.2878 15.1731L21.345 14.2303ZM20.3435 14.6447V15.978H15.6327L19.6447 13.5091L20.3435 14.6447ZM16.7285 0.752153V-0.581179H18.4961L18.0105 1.11845L16.7285 0.752153ZM12.8152 3.52517L14.072 3.97041L14.071 3.97328L12.8152 3.52517ZM12.687 3.85312L13.9051 4.39539L13.9048 4.39609L12.687 3.85312ZM12.5091 4.2091L13.5132 5.08639L12.6409 6.08469L11.6376 5.2182L12.5091 4.2091ZM12.504 4.20463L11.3258 3.58026L12.1093 2.10202L13.3754 3.19553L12.504 4.20463ZM10.0262 8.52503L11.1808 9.19188L11.1802 9.19284L10.0262 8.52503ZM9.97316 8.92201L8.68566 9.26864L8.68456 9.26447L9.97316 8.92201ZM10.2168 9.23983L9.55266 10.396L9.55017 10.3946L10.2168 9.23983ZM11.3151 8.94487L10.1587 8.28117L10.1606 8.27799L11.3151 8.94487ZM12.7426 6.47342L11.588 5.80654L11.5889 5.80514L12.7426 6.47342ZM13.1658 6.29861L12.8207 7.58653L12.8174 7.58563L13.1658 6.29861ZM14.061 15.1368L13.9906 16.4683L13.9821 16.4678L13.9735 16.4672L14.061 15.1368ZM14.5772 14.9443L15.5201 15.8871L15.5192 15.8879L14.5772 14.9443ZM15.5234 9.39386H16.8567V9.39391L15.5234 9.39386ZM15.5232 15.6302H14.1898V15.6302L15.5232 15.6302ZM16.6559 16.0998L17.5996 17.0417L17.5978 17.0435L16.6559 16.0998ZM17.6021 9.39385H18.9354V9.39391L17.6021 9.39385ZM17.6018 14.4168H16.2685V14.4167L17.6018 14.4168ZM18.7348 14.9438L19.6768 15.8875L19.6759 15.8884L18.7348 14.9438ZM19.681 9.39359H21.0143V9.39375L19.681 9.39359ZM19.6805 13.2291H18.3472V13.229L19.6805 13.2291ZM20.8126 13.6989L21.7554 14.6417L21.7545 14.6426L20.8126 13.6989ZM21.0065 13.2291H19.6731V13.2291L21.0065 13.2291ZM21.0067 5.45478H22.34V5.45482L21.0067 5.45478ZM16.7284 0.752232V2.08556H14.9608L15.4464 0.385937L16.7284 0.752232ZM20.3435 15.978C19.8525 15.978 19.4142 15.8421 19.0505 15.647L20.3106 13.2969C20.3278 13.3061 20.3388 13.3097 20.3431 13.3108C20.3469 13.3118 20.3464 13.3113 20.3435 13.3113V15.978ZM21.0139 14.472V14.4748H18.3472V14.472H21.0139ZM21.0139 14.4748C21.0139 15.2062 20.7269 15.9021 20.2077 16.4199L18.3246 14.5318C18.3341 14.5223 18.3388 14.5142 18.3416 14.5075C18.3443 14.5008 18.3472 14.4906 18.3472 14.4748H21.0139ZM20.2089 16.4187C19.6915 16.9361 18.9968 17.2236 18.2651 17.2236V14.557C18.2804 14.557 18.2904 14.5542 18.2973 14.5513C18.3041 14.5485 18.3129 14.5435 18.3233 14.5331L20.2089 16.4187ZM18.2651 17.2236C17.7677 17.2236 17.3239 17.0845 16.9559 16.8841L18.2313 14.5422C18.2486 14.5516 18.2596 14.5552 18.264 14.5564C18.2677 14.5574 18.2674 14.557 18.2651 14.557V17.2236ZM18.9247 15.7909C18.8863 16.4472 18.6201 17.0837 18.131 17.5733L16.2444 15.6887C16.2493 15.6838 16.2522 15.6794 16.2546 15.6739C16.2572 15.6679 16.2613 15.6557 16.2625 15.6353L18.9247 15.7909ZM18.1305 17.5738C17.6129 18.0913 16.9182 18.3788 16.1863 18.3788V15.7121C16.2019 15.7121 16.212 15.7093 16.2188 15.7065C16.2256 15.7036 16.2344 15.6986 16.2448 15.6882L18.1305 17.5738ZM16.1863 18.3788C14.7143 18.3788 13.5332 17.2235 13.4481 15.7919L16.1101 15.6338C16.1114 15.6565 16.1207 15.6764 16.1371 15.692C16.1452 15.6997 16.1533 15.7046 16.1603 15.7075C16.1665 15.71 16.1744 15.7121 16.1863 15.7121V18.3788ZM15.4131 16.8859C14.9824 17.1186 14.4718 17.2529 13.9263 17.2178L14.0972 14.5566C14.0973 14.5566 14.1001 14.5569 14.1071 14.5553C14.1146 14.5535 14.1277 14.5493 14.1452 14.5399L15.4131 16.8859ZM13.9245 17.2177C12.4441 17.1206 11.3588 15.8616 11.3588 14.4312H14.0255C14.0255 14.4763 14.0419 14.511 14.0624 14.5336C14.0824 14.5557 14.096 14.5566 14.099 14.5568L13.9245 17.2177ZM11.3588 14.4312V8.06456H14.0255V14.4312H11.3588ZM13.8469 8.73111L13.122 9.98707L10.8124 8.65397L11.5374 7.39801L13.8469 8.73111ZM13.1232 9.98497C12.608 10.8813 11.649 11.4325 10.6177 11.4325V8.76583C10.6994 8.76583 10.7742 8.72049 10.8112 8.65607L13.1232 9.98497ZM10.6177 11.4325C10.1135 11.4325 9.61714 11.3003 9.17851 11.0489L10.5043 8.7352C10.5402 8.75575 10.5796 8.76583 10.6177 8.76583V11.4325ZM9.17267 11.0456C8.57405 10.6985 8.13833 10.1338 7.95861 9.4611L10.5349 8.77276C10.5337 8.76821 10.5304 8.76016 10.5239 8.75179C10.5176 8.74349 10.5117 8.73945 10.5101 8.73857L9.17267 11.0456ZM7.95901 9.46259C7.77858 8.79044 7.87304 8.08152 8.22106 7.48048L10.5288 8.81672C10.5307 8.81344 10.534 8.80584 10.5354 8.79506C10.5369 8.78425 10.5357 8.77563 10.5345 8.77126L7.95901 9.46259ZM9.37492 6.81527C8.72087 6.98671 8.23131 7.46308 8.22765 7.46922C8.22644 7.47128 8.22462 7.47436 8.22405 7.47535C8.22372 7.47592 8.22315 7.47689 8.22296 7.47722C8.22284 7.47742 8.22259 7.47784 8.22253 7.47794C8.22235 7.47827 8.2224 7.47817 8.22291 7.4773C8.22381 7.47574 8.22533 7.47311 8.22755 7.46928C8.23193 7.46171 8.23851 7.45033 8.2472 7.43528C8.26456 7.40525 8.29007 7.36109 8.32264 7.3047C8.38776 7.19196 8.48097 7.03059 8.59328 6.83611C8.8179 6.44715 9.11889 5.92591 9.4244 5.39678C10.0364 4.33674 10.6639 3.2497 10.735 3.12578L13.0482 4.45245C12.9746 4.58081 12.3438 5.67352 11.7338 6.73015C11.4282 7.25936 11.1272 7.78068 10.9025 8.16971C10.7902 8.36422 10.6969 8.52569 10.6317 8.63855C10.5992 8.69497 10.5735 8.73929 10.5561 8.76954C10.5473 8.78465 10.5406 8.79636 10.536 8.80434C10.5337 8.80829 10.5318 8.81156 10.5304 8.81395C10.5298 8.81505 10.5289 8.81644 10.5282 8.81776C10.5279 8.81825 10.527 8.81972 10.526 8.82148C10.5254 8.82259 10.5235 8.82577 10.5222 8.82789C10.5185 8.83409 10.029 9.3105 9.37492 9.48193V6.81527ZM10.6773 3.23851C10.6919 3.20614 10.7384 3.10178 10.7812 3.0056L13.2178 4.08919C13.1772 4.18054 13.1257 4.29622 13.1059 4.33972L10.6773 3.23851ZM10.7812 3.00558C10.7998 2.96391 10.8203 2.91067 10.8495 2.82808L13.3629 3.71917C13.3267 3.82129 13.2789 3.95181 13.2178 4.0892L10.7812 3.00558ZM10.8494 2.82845C11.7525 0.278965 14.0255 -1.33332 16.7284 -1.33332V1.33334C15.1596 1.33334 13.8905 2.22972 13.3631 3.7188L10.8494 2.82845ZM16.7284 -1.33332C20.3381 -1.33332 23.092 1.81426 23.092 5.4546H20.4253C20.4253 3.07956 18.6661 1.33334 16.7284 1.33334V-1.33332ZM23.092 5.45456L23.0922 13.2289L20.4256 13.229L20.4253 5.45464L23.092 5.45456ZM23.0922 13.229C23.0922 13.9601 22.8054 14.6545 22.2886 15.1722L20.4013 13.2883C20.4118 13.2778 20.417 13.2688 20.4199 13.2618C20.4228 13.2548 20.4256 13.2445 20.4256 13.229H23.0922ZM22.2878 15.1731C21.7702 15.6907 21.0754 15.978 20.3435 15.978V13.3114C20.3591 13.3114 20.3694 13.3085 20.3762 13.3057C20.383 13.3029 20.3918 13.2979 20.4022 13.2875L22.2878 15.1731ZM19.6447 13.5091L19.6447 13.5091L21.0423 15.7802L21.0423 15.7802L19.6447 13.5091ZM16.7285 2.08549C15.4608 2.08549 14.4995 2.76364 14.072 3.97041L11.5584 3.07993C12.3611 0.81399 14.3255 -0.581179 16.7285 -0.581179V2.08549ZM14.071 3.97328C14.0289 4.09123 13.9742 4.24018 13.9051 4.39539L11.4689 3.31085C11.4955 3.25118 11.5228 3.17963 11.5594 3.07706L14.071 3.97328ZM13.9048 4.39609C13.8437 4.53303 13.7926 4.64868 13.7534 4.72702C13.7291 4.77564 13.6898 4.85057 13.6328 4.93356C13.575 5.01765 13.5178 5.08107 13.5132 5.08639L11.5051 3.33182C11.5082 3.32823 11.5072 3.3294 11.5056 3.33123C11.5036 3.3336 11.4984 3.33964 11.4916 3.34793C11.4845 3.35651 11.4757 3.3676 11.4657 3.38079C11.4556 3.39409 11.4453 3.40824 11.4351 3.42317C11.4142 3.45357 11.3981 3.48019 11.3867 3.50032C11.376 3.51912 11.3694 3.53213 11.368 3.53506C11.3665 3.53809 11.3674 3.53631 11.3719 3.5266C11.3763 3.5172 11.3825 3.50367 11.3915 3.48396C11.4003 3.46443 11.4109 3.44084 11.4239 3.41169C11.4369 3.38259 11.4518 3.34924 11.4692 3.31015L13.9048 4.39609ZM11.6376 5.2182L11.6325 5.21373L13.3754 3.19553L13.3806 3.20001L11.6376 5.2182ZM13.6821 4.829C13.4734 5.22274 12.8776 6.25386 11.1808 9.19188L8.87157 7.85819C10.5923 4.87889 11.1472 3.91734 11.3258 3.58026L13.6821 4.829ZM11.1802 9.19284C11.2869 9.00847 11.3166 8.78602 11.2618 8.57955L8.68456 9.26447C8.55806 8.78849 8.62502 8.28426 8.87213 7.85723L11.1802 9.19284ZM11.2606 8.57539C11.2058 8.3716 11.0709 8.19337 10.8834 8.0851L9.55017 10.3946C9.12183 10.1473 8.8131 9.74196 8.68567 9.26864L11.2606 8.57539ZM10.8809 8.08366C10.7291 7.99648 10.5815 7.99706 10.4796 8.0245C10.378 8.05184 10.2478 8.12589 10.1587 8.28117L12.4715 9.60857C11.8904 10.621 10.5624 10.976 9.55266 10.396L10.8809 8.08366ZM10.1606 8.27799L11.588 5.80654L13.8972 7.1403L12.4697 9.61174L10.1606 8.27799ZM11.5889 5.80514C11.974 5.14024 12.7601 4.80749 13.5141 5.01158L12.8174 7.58563C13.2407 7.70019 13.6818 7.5121 13.8964 7.1417L11.5889 5.80514ZM13.5108 5.01069C14.2588 5.21109 14.7778 5.88896 14.7778 6.6619H12.1111C12.1111 7.09464 12.4016 7.47424 12.8207 7.58652L13.5108 5.01069ZM14.7778 6.6619V14.4314H12.1111V6.6619H14.7778ZM14.7778 14.4314C14.7778 14.2795 14.7215 14.1414 14.6291 14.0357C14.5369 13.9301 14.3741 13.8212 14.1486 13.8063L13.9735 16.4672C12.8511 16.3934 12.1111 15.4156 12.1111 14.4314H14.7778ZM14.1315 13.8053C13.9739 13.797 13.7815 13.8547 13.6353 14.0007L15.5192 15.8879C15.0983 16.3082 14.5402 16.4973 13.9906 16.4683L14.1315 13.8053ZM13.6344 14.0015C13.5079 14.128 13.4376 14.3014 13.4376 14.4752H16.1042C16.1042 15.0048 15.8963 15.5108 15.5201 15.8871L13.6344 14.0015ZM13.4376 14.4752V9.39386H16.1042V14.4752H13.4376ZM13.4376 9.39386C13.4376 8.44968 14.203 7.68427 15.1472 7.68427V10.3509C15.6757 10.3509 16.1042 9.92244 16.1042 9.39386H13.4376ZM15.1472 7.68427C16.0908 7.68427 16.8567 8.44891 16.8567 9.39386H14.1901C14.1901 9.92274 14.6191 10.3509 15.1472 10.3509V7.68427ZM16.8567 9.39391L16.8565 15.6303L14.1898 15.6302L14.1901 9.39381L16.8567 9.39391ZM16.8565 15.6302C16.8565 15.2595 16.5571 14.9601 16.1864 14.9601V17.6268C15.0844 17.6268 14.1898 16.7323 14.1898 15.6302H16.8565ZM16.1864 14.9601C16.0128 14.9601 15.8403 15.03 15.714 15.156L17.5978 17.0435C17.2213 17.4193 16.7152 17.6268 16.1864 17.6268V14.9601ZM15.7122 15.1578C15.5862 15.2841 15.5162 15.4567 15.5162 15.6302H18.1829C18.1829 16.159 17.9754 16.6652 17.5996 17.0417L15.7122 15.1578ZM15.5162 15.6302V9.39385H18.1829V15.6302H15.5162ZM15.5162 9.39385C15.5162 8.45023 16.2809 7.68427 17.2258 7.68427V10.3509C17.7547 10.3509 18.1829 9.92188 18.1829 9.39385H15.5162ZM17.2258 7.68427C18.1695 7.68427 18.9354 8.4489 18.9354 9.39385H16.2687C16.2687 9.92274 16.6978 10.3509 17.2258 10.3509V7.68427ZM18.9354 9.39391L18.9352 14.4168L16.2685 14.4167L16.2687 9.39379L18.9354 9.39391ZM18.9352 14.4168V14.4752H16.2685V14.4168H18.9352ZM18.9352 14.4752C18.9352 14.1036 18.6351 13.8048 18.2653 13.8048V16.4715C17.1637 16.4715 16.2685 15.5777 16.2685 14.4752H18.9352ZM18.2653 13.8048C18.0881 13.8048 17.9166 13.8769 17.7938 13.9992L19.6759 15.8884C19.3015 16.2614 18.7973 16.4715 18.2653 16.4715V13.8048ZM17.7929 14.0001C17.6654 14.1274 17.5952 14.3014 17.5952 14.475H20.2618C20.2618 15.0043 20.054 15.5109 19.6768 15.8875L17.7929 14.0001ZM17.5952 14.475V9.39359H20.2618V14.475H17.5952ZM17.5952 9.39359C17.5952 8.44995 18.3598 7.684 19.3047 7.684V10.3507C19.8336 10.3507 20.2618 9.92164 20.2618 9.39359H17.5952ZM19.3047 7.684C20.2484 7.684 21.0143 8.44863 21.0143 9.39359H18.3477C18.3477 9.92248 18.7767 10.3507 19.3047 10.3507V7.684ZM21.0143 9.39375L21.0139 13.2293L18.3472 13.229L18.3477 9.39342L21.0143 9.39375ZM21.0139 13.2291C21.0139 12.8593 20.7151 12.5592 20.3435 12.5592V15.2259C19.2411 15.2259 18.3472 14.3308 18.3472 13.2291H21.0139ZM20.3435 12.5592C20.1686 12.5592 19.996 12.6301 19.8706 12.7552L21.7545 14.6426C21.3794 15.017 20.8741 15.2259 20.3435 15.2259V12.5592ZM19.8698 12.7561C19.7428 12.8831 19.6731 13.0564 19.6731 13.2291H22.3398C22.3398 13.7572 22.133 14.2641 21.7554 14.6417L19.8698 12.7561ZM19.6731 13.2291L19.6734 5.45474L22.34 5.45482L22.3398 13.2292L19.6731 13.2291ZM19.6734 5.45478C19.6734 3.47691 18.2352 2.08556 16.7284 2.08556V-0.581102C19.9398 -0.581102 22.34 2.24718 22.34 5.45478H19.6734ZM15.4464 0.385937L15.4464 0.385859L18.0105 1.11845L18.0105 1.11853L15.4464 0.385937Z" fill="#4CAF4F" mask="url(#path-1-inside-1_16_1456)"/>
<path d="M3.99512 17.2139L3.91992 17.1739C3.90241 17.2054 3.85248 17.294 3.7793 17.4258C3.80533 17.4388 3.83112 17.4511 3.85742 17.461C3.90231 17.3801 3.94849 17.2979 3.99512 17.2139Z" fill="#4CAF4F" stroke="#4CAF4F" stroke-width="1.33333"/>
<path d="M19.8578 19.0758L19.8597 19.0768C19.8621 19.0784 19.8641 19.0809 19.8666 19.0826C19.8635 19.0805 19.8607 19.0779 19.8578 19.0758Z" fill="#4CAF4F" stroke="#4CAF4F" stroke-width="1.33333"/>
</svg>
